<svg xmlns="http://www.w3.org/2000/svg" xmlns:xlink="http://www.w3.org/1999/xlink" version="1.1" id="Layer_1" x="0px" y="0px" width="100px" height="100px" viewBox="0 0 100 100" enable-background="new 0 0 100 100" xml:space="preserve">
<path fill="#000000" d="M97,41.602c0-5.333-2.849-10.279-7.519-13.193c-2.479-10.137-12.043-17.363-23.244-17.363  c-2.695,0-5.326,0.418-7.846,1.246c-3.125-2.951-7.332-4.61-11.823-4.61c-5.188,0-10.109,2.315-13.257,6.145  c-0.698-0.083-1.4-0.125-2.1-0.125c-7.604,0-14.109,4.734-16.121,11.486C8.406,27.376,3.876,33.296,3.876,40.113  c0,2.021,0.416,4.037,1.213,5.907c-0.796,1.871-1.213,3.887-1.213,5.906c0,5.863,3.365,11.158,8.814,13.926  c3.128,2.945,7.415,4.625,11.841,4.625c2.827,0,5.538-0.649,7.97-1.898c3.156,3.456,7.816,5.521,12.716,5.521  c3.055,0,5.968-0.757,8.542-2.205c2.85,2.088,6.253,3.433,9.84,3.873c6.047,6.068,10.688,13.907,10.734,13.989l1.525,2.597  l7.658-5.49l-4.263-12.219c2.401-1.112,4.388-2.931,5.646-5.211c5.231-2.776,8.562-8.09,8.562-13.795  c0-1.279-0.161-2.541-0.479-3.769C95.554,49.024,97,45.37,97,41.602z M81.709,64.877l-0.954,0.436l-0.422,0.961  c-0.885,2.013-2.801,3.484-5.122,3.938l-3.116,0.607l4.064,11.649c-2.221-3.209-5.547-7.592-9.415-11.321l-0.716-0.689l-0.99-0.073  c-2.365-0.175-4.633-0.886-6.625-2.028l7.918-6.258c2.062-1.631,4.841-2.341,5.777-2.09l3.629,0.965l1.363-5.136l-3.63-0.964  c-3.19-0.85-7.758,0.943-10.434,3.057l-8.892,7.025l-0.021-0.02l-1.822,1.355c-2.026,1.51-4.352,2.309-6.962,2.309  c-3.727,0-7.172-1.735-9.172-4.551v-2.924v-1.223v-3.819c0-2.132,0.992-4.168,1.577-4.521l2.969-1.834l-2.88-4.705l-3.045,1.832  c-1.425,0.861-2.527,2.385-3.262,4.093c-0.618-0.57-1.285-1.078-1.982-1.501l-8.907-5.399l-2.853,4.703l8.78,5.399  c2.133,1.293,3.603,4.104,3.603,5.752v1.223v2.316c-2,1.002-3.648,1.535-5.762,1.535c-3.142,0-6.104-1.222-8.232-3.349l-0.305-0.336  l-0.414-0.203c-3.76-1.784-6.088-5.296-6.088-9.164c0-1.609,0.401-3.153,1.184-4.591l0.718-1.316l-0.716-1.315  c-0.782-1.435-1.179-2.979-1.179-4.59c0-4.781,3.54-8.902,8.607-10.021l1.8-0.398l0.316-1.816c0.875-5.028,5.548-8.677,11.113-8.677  c0.907,0,1.819,0.102,2.71,0.304l1.885,0.426l1.04-1.629c2.015-3.158,5.741-5.12,9.723-5.12c2.58,0,5.006,0.797,6.97,2.228  l-2.045,1.908l-0.035-0.038l-1.433,1.336c-1.929,1.476-4.292,2.251-5.193,2.115l-3.899-0.587l-0.817,5.439l3.896,0.586  c0.13,0.02,0.269,0.018,0.402,0.029c-0.629,1.965-0.855,4.06-0.537,5.913l0.897,5.226l5.421-0.932l-0.897-5.225  c-0.338-1.969,0.657-4.978,2.091-6.313l2.254-2.104c0.31-0.245,0.604-0.493,0.873-0.743l4.316-4.027  c2.345-0.956,4.834-1.447,7.402-1.447c9.009,0,16.623,5.942,18.106,14.129l0.24,1.328l1.196,0.622  c3.527,1.834,5.72,5.274,5.72,8.978c0,1.94-0.591,3.786-1.677,5.392l-0.854-0.854h0.001l-3.563-3.563  c-1.549-1.548-3.133-4.974-3.393-7.33l-0.588-5.353l-5.279,0.58l0.588,5.353c0.168,1.535,0.688,3.273,1.399,4.947  c-0.353-0.043-0.705-0.09-1.044-0.106L65.14,40.101l-0.253,5.306l11.953,0.566c2.446,0.116,6.026,1.574,7.513,3.059l2.834,2.835  l0.103,0.255c0.446,1.125,0.673,2.31,0.673,3.517C87.961,59.578,85.565,63.118,81.709,64.877z"/>
</svg>