<?xml version="1.0" encoding="utf-8"?>
<!-- Generator: Adobe Illustrator 15.1.0, SVG Export Plug-In . SVG Version: 6.00 Build 0)  -->
<!DOCTYPE svg PUBLIC "-//W3C//DTD SVG 1.1//EN" "http://www.w3.org/Graphics/SVG/1.1/DTD/svg11.dtd">
<svg version="1.1" id="Layer_1" xmlns="http://www.w3.org/2000/svg" xmlns:xlink="http://www.w3.org/1999/xlink" x="0px" y="0px"
	 width="100px" height="64px" viewBox="0 0 100 64" enable-background="new 0 0 100 64" xml:space="preserve">
<path d="M84.604,10l-13-10v6h-43C19.343,6,11.05,9.603,5.852,15.885c-3.605,4.357-7.431,12.034-5.178,23.863l0.005-0.001
	C1.029,41.599,2.65,43,4.604,43c2.209,0,4-1.791,4-4c0-0.256-0.029-0.505-0.075-0.747l0.005-0.001
	c-1.323-6.945-0.119-12.916,3.481-17.267C15.688,16.546,21.734,14,28.604,14h43v6L84.604,10z"/>
<path d="M15.396,54l13,10v-6h43c9.261,0,17.554-3.603,22.752-9.885c3.605-4.357,7.431-12.034,5.178-23.863l-0.005,0.001
	C98.971,22.401,97.35,21,95.396,21c-2.209,0-4,1.791-4,4c0,0.256,0.029,0.505,0.075,0.747l-0.005,0.001
	c1.323,6.945,0.119,12.916-3.481,17.267C84.312,47.454,78.266,50,71.396,50h-43v-6L15.396,54z"/>
</svg>
